<?xml version="1.0" encoding="utf-8"?>
<!-- Generator: Adobe Illustrator 26.0.1, SVG Export Plug-In . SVG Version: 6.00 Build 0)  -->
<svg version="1.1" id="Layer_1" xmlns="http://www.w3.org/2000/svg" xmlns:xlink="http://www.w3.org/1999/xlink" x="0px" y="0px"
	 viewBox="0 0 40 47.93" style="enable-background:new 0 0 40 47.93;" xml:space="preserve">
<style type="text/css">
	.st0{fill:#E82429;}
	.st1{fill:#FFFFFF;}
</style>
<rect x="0" class="st0" width="40" height="47.93"/>
<path class="st1" d="M36.47,20.52c-0.13-0.2-0.33-0.39-0.59-0.59c-0.26-0.2-0.59-0.37-0.97-0.53c-0.38-0.16-0.82-0.26-1.32-0.32
	l-2.91-0.03c0.01-0.18,0.01-0.36,0.01-0.55c0-1.68-0.3-3.37-0.89-5.07c-0.59-1.69-1.52-3.23-2.78-4.61
	c-1.26-1.38-2.88-2.52-4.85-3.41c-1.97-0.89-4.34-1.37-7.1-1.42c-1.68,0.13-3.09,0.39-4.22,0.77C9.72,5.14,8.8,5.61,8.1,6.17
	C7.41,6.72,6.92,7.33,6.63,8c-0.29,0.67-0.43,1.36-0.43,2.07c0,1.05,0.27,1.93,0.79,2.63c0.53,0.69,1.13,1.19,1.81,1.48
	c0.11-0.55,0.38-1.1,0.83-1.63c0.45-0.54,1.04-1.01,1.78-1.42c0.74-0.41,1.59-0.74,2.54-0.99c0.96-0.25,2.01-0.37,3.14-0.37
	c1.24,0,2.47,0.21,3.71,0.63c1.24,0.42,2.51,1.09,3.83,2.01c1.42,1.1,2.4,2.28,2.94,3.53c0.44,1.02,0.7,2.06,0.78,3.11H4.12
	c-0.53,0-0.79,0.12-0.79,0.36c0,0.16,0.09,0.35,0.26,0.57C3.76,20.19,4,20.4,4.32,20.6c0.32,0.2,0.68,0.37,1.1,0.51
	c0.42,0.15,0.88,0.22,1.38,0.22H20.2v14.2l9.35-4.18c-0.26,1.29-0.71,2.48-1.34,3.57c-0.63,1.09-1.62,1.96-2.96,2.62
	c-1.76,0.76-3.33,1.14-4.69,1.14c-1,0-1.88-0.21-2.64-0.65c-0.76-0.43-1.4-1.01-1.91-1.72c-0.51-0.71-0.9-1.53-1.16-2.47
	c-0.26-0.93-0.39-1.91-0.39-2.94c0-1.13,0.18-2.29,0.55-3.47c-1.03,0-1.96,0.19-2.8,0.57c-0.84,0.38-1.57,0.89-2.19,1.52
	c-0.62,0.63-1.1,1.37-1.44,2.21c-0.34,0.84-0.51,1.74-0.51,2.68c0,1.26,0.33,2.47,0.99,3.63c0.53,0.97,1.14,1.83,1.83,2.57
	c0.7,0.74,1.51,1.35,2.45,1.83c0.94,0.49,2,0.86,3.2,1.1c1.2,0.25,2.57,0.38,4.12,0.38c1.63,0,3.07-0.21,4.32-0.63
	c1.25-0.42,2.34-1.01,3.26-1.75c0.92-0.75,1.7-1.63,2.35-2.63c0.64-1,1.18-2.06,1.62-3.19c0.43-1.13,0.78-2.31,1.03-3.53
	c0.25-1.22,0.45-2.44,0.61-3.65l-2.52-3.59l-7.1,4.18v-7.81h11.74c0.5,0,0.75-0.12,0.75-0.36C36.67,20.87,36.6,20.72,36.47,20.52z"
	/>
</svg>
